<mxfile host="app.diagrams.net" modified="2022-09-28T13:53:59.796Z" agent="5.0 (Macintosh; Intel Mac OS X 10_15_7) AppleWebKit/537.36 (KHTML, like Gecko) Chrome/105.0.0.0 Safari/537.36" etag="jRL2-OLAkPE-GgVj5FUE" version="20.3.7" type="github">
  <diagram id="cFWDKBPBG1Pw6cpuaRtK" name="Страница 1">
    <mxGraphModel dx="946" dy="614" grid="1" gridSize="10" guides="1" tooltips="1" connect="1" arrows="1" fold="1" page="1" pageScale="1" pageWidth="827" pageHeight="1169" math="0" shadow="0">
      <root>
        <mxCell id="0" />
        <mxCell id="1" parent="0" />
        <mxCell id="g6ebV9ZMYNLidLzUV39D-1" value="&lt;font style=&quot;font-size: 14px&quot;&gt;Робітник&lt;/font&gt;" style="shape=umlActor;verticalLabelPosition=bottom;verticalAlign=top;html=1;outlineConnect=0;labelBackgroundColor=none;" vertex="1" parent="1">
          <mxGeometry x="70" y="280" width="30" height="60" as="geometry" />
        </mxCell>
        <mxCell id="g6ebV9ZMYNLidLzUV39D-2" value="&lt;font style=&quot;font-size: 14px&quot;&gt;Створити обліковий запис&lt;/font&gt;" style="ellipse;whiteSpace=wrap;html=1;labelBackgroundColor=none;fontColor=#000000;" vertex="1" parent="1">
          <mxGeometry x="210" y="30" width="300" height="40" as="geometry" />
        </mxCell>
        <mxCell id="g6ebV9ZMYNLidLzUV39D-3" value="&lt;font style=&quot;font-size: 14px&quot;&gt;Авторизуватися&lt;/font&gt;" style="ellipse;whiteSpace=wrap;html=1;labelBackgroundColor=none;fontColor=#000000;" vertex="1" parent="1">
          <mxGeometry x="210" y="110" width="300" height="40" as="geometry" />
        </mxCell>
        <mxCell id="g6ebV9ZMYNLidLzUV39D-4" style="edgeStyle=orthogonalEdgeStyle;rounded=0;orthogonalLoop=1;jettySize=auto;html=1;fontColor=#000000;endArrow=block;endFill=0;strokeWidth=1;" edge="1" parent="1" source="g6ebV9ZMYNLidLzUV39D-5">
          <mxGeometry relative="1" as="geometry">
            <mxPoint x="85" y="370" as="targetPoint" />
          </mxGeometry>
        </mxCell>
        <mxCell id="g6ebV9ZMYNLidLzUV39D-5" value="&lt;span style=&quot;font-size: 14px&quot;&gt;Адміністратор&lt;/span&gt;" style="shape=umlActor;verticalLabelPosition=bottom;verticalAlign=top;html=1;outlineConnect=0;labelBackgroundColor=none;" vertex="1" parent="1">
          <mxGeometry x="70" y="440" width="30" height="60" as="geometry" />
        </mxCell>
        <mxCell id="g6ebV9ZMYNLidLzUV39D-6" value="" style="endArrow=none;html=1;fontFamily=Times New Roman;fontSize=11;strokeWidth=1;entryX=0;entryY=0.5;entryDx=0;entryDy=0;" edge="1" parent="1" target="g6ebV9ZMYNLidLzUV39D-2">
          <mxGeometry width="50" height="50" relative="1" as="geometry">
            <mxPoint x="90" y="270" as="sourcePoint" />
            <mxPoint x="210" y="220" as="targetPoint" />
          </mxGeometry>
        </mxCell>
        <mxCell id="g6ebV9ZMYNLidLzUV39D-7" value="" style="endArrow=none;html=1;fontFamily=Times New Roman;fontSize=11;strokeWidth=1;entryX=0;entryY=0.5;entryDx=0;entryDy=0;" edge="1" parent="1" target="g6ebV9ZMYNLidLzUV39D-3">
          <mxGeometry width="50" height="50" relative="1" as="geometry">
            <mxPoint x="90" y="270" as="sourcePoint" />
            <mxPoint x="210" y="220" as="targetPoint" />
          </mxGeometry>
        </mxCell>
        <mxCell id="g6ebV9ZMYNLidLzUV39D-8" style="edgeStyle=orthogonalEdgeStyle;rounded=0;orthogonalLoop=1;jettySize=auto;html=1;entryX=1;entryY=0.5;entryDx=0;entryDy=0;endArrow=open;endFill=0;strokeWidth=1;fontColor=#000000;exitX=1;exitY=0.5;exitDx=0;exitDy=0;dashed=1;" edge="1" parent="1" source="g6ebV9ZMYNLidLzUV39D-10" target="g6ebV9ZMYNLidLzUV39D-3">
          <mxGeometry relative="1" as="geometry">
            <Array as="points">
              <mxPoint x="580" y="230" />
              <mxPoint x="580" y="130" />
            </Array>
          </mxGeometry>
        </mxCell>
        <mxCell id="g6ebV9ZMYNLidLzUV39D-9" value="&amp;lt;&amp;lt;include&amp;gt;&amp;gt;" style="edgeLabel;html=1;align=center;verticalAlign=middle;resizable=0;points=[];fontColor=#000000;" vertex="1" connectable="0" parent="g6ebV9ZMYNLidLzUV39D-8">
          <mxGeometry x="-0.253" y="2" relative="1" as="geometry">
            <mxPoint x="-38" y="3.0699999999999967" as="offset" />
          </mxGeometry>
        </mxCell>
        <mxCell id="g6ebV9ZMYNLidLzUV39D-10" value="&lt;span style=&quot;font-size: 14px&quot;&gt;Переглянути документацію&lt;/span&gt;" style="ellipse;whiteSpace=wrap;html=1;labelBackgroundColor=none;fontColor=#000000;" vertex="1" parent="1">
          <mxGeometry x="220" y="210" width="300" height="40" as="geometry" />
        </mxCell>
        <mxCell id="g6ebV9ZMYNLidLzUV39D-11" style="edgeStyle=orthogonalEdgeStyle;rounded=0;orthogonalLoop=1;jettySize=auto;html=1;dashed=1;endArrow=open;endFill=0;strokeWidth=1;fontColor=#000000;" edge="1" parent="1">
          <mxGeometry relative="1" as="geometry">
            <mxPoint x="580" y="209.97000000000003" as="targetPoint" />
            <mxPoint x="519.999777050964" y="290.0044827586207" as="sourcePoint" />
            <Array as="points">
              <mxPoint x="580" y="289.97" />
              <mxPoint x="580" y="229.97" />
            </Array>
          </mxGeometry>
        </mxCell>
        <mxCell id="g6ebV9ZMYNLidLzUV39D-12" value="&amp;lt;&amp;lt;include&amp;gt;&amp;gt;" style="edgeLabel;html=1;align=center;verticalAlign=middle;resizable=0;points=[];fontColor=#000000;" vertex="1" connectable="0" parent="g6ebV9ZMYNLidLzUV39D-11">
          <mxGeometry x="-0.0883" y="3" relative="1" as="geometry">
            <mxPoint x="-37" y="-15.899999999999999" as="offset" />
          </mxGeometry>
        </mxCell>
        <mxCell id="g6ebV9ZMYNLidLzUV39D-13" value="&lt;font style=&quot;font-size: 14px&quot;&gt;Поставити підпис&lt;/font&gt;" style="ellipse;whiteSpace=wrap;html=1;labelBackgroundColor=none;fontColor=#000000;" vertex="1" parent="1">
          <mxGeometry x="220" y="270" width="300" height="40" as="geometry" />
        </mxCell>
        <mxCell id="g6ebV9ZMYNLidLzUV39D-14" style="edgeStyle=orthogonalEdgeStyle;rounded=0;orthogonalLoop=1;jettySize=auto;html=1;dashed=1;endArrow=open;endFill=0;strokeWidth=1;fontColor=#000000;" edge="1" parent="1" source="g6ebV9ZMYNLidLzUV39D-16">
          <mxGeometry relative="1" as="geometry">
            <mxPoint x="580" y="290" as="targetPoint" />
            <Array as="points">
              <mxPoint x="580" y="350" />
              <mxPoint x="580" y="290" />
            </Array>
          </mxGeometry>
        </mxCell>
        <mxCell id="g6ebV9ZMYNLidLzUV39D-15" value="&amp;lt;&amp;lt;include&amp;gt;&amp;gt;" style="edgeLabel;html=1;align=center;verticalAlign=middle;resizable=0;points=[];fontColor=#000000;" vertex="1" connectable="0" parent="g6ebV9ZMYNLidLzUV39D-14">
          <mxGeometry x="-0.0539" relative="1" as="geometry">
            <mxPoint x="-36.55" y="-20.03" as="offset" />
          </mxGeometry>
        </mxCell>
        <mxCell id="g6ebV9ZMYNLidLzUV39D-16" value="&lt;span style=&quot;font-size: 14px&quot;&gt;Написати повідомлення у чат&lt;/span&gt;" style="ellipse;whiteSpace=wrap;html=1;labelBackgroundColor=none;fontColor=#000000;" vertex="1" parent="1">
          <mxGeometry x="220" y="330" width="300" height="40" as="geometry" />
        </mxCell>
        <mxCell id="g6ebV9ZMYNLidLzUV39D-17" value="" style="endArrow=none;html=1;fontFamily=Times New Roman;fontSize=11;strokeWidth=1;entryX=0;entryY=0.5;entryDx=0;entryDy=0;" edge="1" parent="1" target="g6ebV9ZMYNLidLzUV39D-10">
          <mxGeometry width="50" height="50" relative="1" as="geometry">
            <mxPoint x="110" y="290" as="sourcePoint" />
            <mxPoint x="260" y="320" as="targetPoint" />
          </mxGeometry>
        </mxCell>
        <mxCell id="g6ebV9ZMYNLidLzUV39D-18" value="" style="endArrow=none;html=1;fontFamily=Times New Roman;fontSize=11;strokeWidth=1;entryX=0;entryY=0.5;entryDx=0;entryDy=0;" edge="1" parent="1" target="g6ebV9ZMYNLidLzUV39D-13">
          <mxGeometry width="50" height="50" relative="1" as="geometry">
            <mxPoint x="110" y="300" as="sourcePoint" />
            <mxPoint x="260" y="320" as="targetPoint" />
          </mxGeometry>
        </mxCell>
        <mxCell id="g6ebV9ZMYNLidLzUV39D-19" value="" style="endArrow=none;html=1;fontFamily=Times New Roman;fontSize=11;strokeWidth=1;entryX=0;entryY=0.5;entryDx=0;entryDy=0;" edge="1" parent="1" target="g6ebV9ZMYNLidLzUV39D-16">
          <mxGeometry width="50" height="50" relative="1" as="geometry">
            <mxPoint x="110" y="310" as="sourcePoint" />
            <mxPoint x="260" y="320" as="targetPoint" />
          </mxGeometry>
        </mxCell>
        <mxCell id="g6ebV9ZMYNLidLzUV39D-20" style="edgeStyle=none;rounded=0;orthogonalLoop=1;jettySize=auto;html=1;startArrow=none;startFill=0;endArrow=block;endFill=0;strokeColor=#000000;strokeWidth=1;fontSize=11;fontColor=#000000;" edge="1" parent="1" source="g6ebV9ZMYNLidLzUV39D-21">
          <mxGeometry relative="1" as="geometry">
            <mxPoint x="320" y="450" as="targetPoint" />
          </mxGeometry>
        </mxCell>
        <mxCell id="g6ebV9ZMYNLidLzUV39D-21" value="&lt;span style=&quot;font-size: 14px&quot;&gt;Завантажити документацію&lt;/span&gt;" style="ellipse;whiteSpace=wrap;html=1;labelBackgroundColor=none;fontColor=#000000;" vertex="1" parent="1">
          <mxGeometry x="170" y="410" width="300" height="40" as="geometry" />
        </mxCell>
        <mxCell id="g6ebV9ZMYNLidLzUV39D-22" value="&lt;span style=&quot;font-size: 14px&quot;&gt;Створити форму для підписів&lt;/span&gt;" style="ellipse;whiteSpace=wrap;html=1;labelBackgroundColor=none;fontColor=#000000;" vertex="1" parent="1">
          <mxGeometry x="170" y="470" width="300" height="40" as="geometry" />
        </mxCell>
        <mxCell id="g6ebV9ZMYNLidLzUV39D-23" value="" style="endArrow=none;html=1;fontFamily=Times New Roman;fontSize=11;strokeWidth=1;entryX=0;entryY=0.5;entryDx=0;entryDy=0;" edge="1" parent="1" target="g6ebV9ZMYNLidLzUV39D-21">
          <mxGeometry width="50" height="50" relative="1" as="geometry">
            <mxPoint x="110" y="460" as="sourcePoint" />
            <mxPoint x="400" y="360" as="targetPoint" />
          </mxGeometry>
        </mxCell>
        <mxCell id="g6ebV9ZMYNLidLzUV39D-24" value="" style="endArrow=none;html=1;fontFamily=Times New Roman;fontSize=11;strokeWidth=1;exitX=0;exitY=0.5;exitDx=0;exitDy=0;" edge="1" parent="1" source="g6ebV9ZMYNLidLzUV39D-22">
          <mxGeometry width="50" height="50" relative="1" as="geometry">
            <mxPoint x="400" y="440" as="sourcePoint" />
            <mxPoint x="110" y="460" as="targetPoint" />
          </mxGeometry>
        </mxCell>
        <mxCell id="g6ebV9ZMYNLidLzUV39D-25" value="&lt;span style=&quot;font-size: 14px&quot;&gt;API пристрою&lt;/span&gt;" style="shape=umlActor;verticalLabelPosition=bottom;verticalAlign=top;html=1;outlineConnect=0;labelBackgroundColor=none;" vertex="1" parent="1">
          <mxGeometry x="680" y="495" width="30" height="60" as="geometry" />
        </mxCell>
        <mxCell id="g6ebV9ZMYNLidLzUV39D-26" style="edgeStyle=none;rounded=0;orthogonalLoop=1;jettySize=auto;html=1;exitX=1;exitY=0.5;exitDx=0;exitDy=0;endArrow=none;endFill=0;strokeWidth=1;fontSize=18;fontColor=#000000;startArrow=none;startFill=0;" edge="1" parent="1" source="g6ebV9ZMYNLidLzUV39D-29">
          <mxGeometry relative="1" as="geometry">
            <mxPoint x="660" y="530" as="targetPoint" />
          </mxGeometry>
        </mxCell>
        <mxCell id="g6ebV9ZMYNLidLzUV39D-27" style="edgeStyle=none;rounded=0;orthogonalLoop=1;jettySize=auto;html=1;exitX=0;exitY=0.5;exitDx=0;exitDy=0;entryX=1;entryY=0.5;entryDx=0;entryDy=0;startArrow=none;startFill=0;endArrow=openThin;endFill=0;strokeColor=#000000;strokeWidth=1;fontSize=18;fontColor=#000000;dashed=1;" edge="1" parent="1" source="g6ebV9ZMYNLidLzUV39D-29" target="g6ebV9ZMYNLidLzUV39D-22">
          <mxGeometry relative="1" as="geometry" />
        </mxCell>
        <mxCell id="g6ebV9ZMYNLidLzUV39D-28" value="&lt;font style=&quot;font-size: 11px;&quot;&gt;&amp;lt;&amp;lt;extend&amp;gt;&amp;gt;&lt;/font&gt;" style="edgeLabel;html=1;align=center;verticalAlign=middle;resizable=0;points=[];fontSize=11;fontColor=#000000;" vertex="1" connectable="0" parent="g6ebV9ZMYNLidLzUV39D-27">
          <mxGeometry x="0.3305" y="-1" relative="1" as="geometry">
            <mxPoint x="-14" y="19.08" as="offset" />
          </mxGeometry>
        </mxCell>
        <mxCell id="g6ebV9ZMYNLidLzUV39D-29" value="&lt;font face=&quot;Helvetica&quot; style=&quot;font-size: 14px&quot;&gt;Надати доступ до пристрою&lt;/font&gt;" style="ellipse;whiteSpace=wrap;html=1;aspect=fixed;fontFamily=Times New Roman;fontSize=18;spacingTop=-2;labelBackgroundColor=none;" vertex="1" parent="1">
          <mxGeometry x="510" y="450" width="110" height="110" as="geometry" />
        </mxCell>
        <mxCell id="g6ebV9ZMYNLidLzUV39D-30" value="&lt;span style=&quot;font-size: 14px&quot;&gt;Керувати обліковими записами&lt;/span&gt;" style="ellipse;whiteSpace=wrap;html=1;labelBackgroundColor=none;fontColor=#000000;" vertex="1" parent="1">
          <mxGeometry x="170" y="530" width="300" height="40" as="geometry" />
        </mxCell>
        <mxCell id="g6ebV9ZMYNLidLzUV39D-31" value="" style="endArrow=none;html=1;fontFamily=Times New Roman;fontSize=11;strokeColor=#000000;strokeWidth=1;entryX=0;entryY=0.5;entryDx=0;entryDy=0;" edge="1" parent="1" target="g6ebV9ZMYNLidLzUV39D-30">
          <mxGeometry width="50" height="50" relative="1" as="geometry">
            <mxPoint x="110" y="460" as="sourcePoint" />
            <mxPoint x="340" y="610" as="targetPoint" />
          </mxGeometry>
        </mxCell>
        <mxCell id="g6ebV9ZMYNLidLzUV39D-32" style="edgeStyle=none;rounded=0;orthogonalLoop=1;jettySize=auto;html=1;exitX=0.5;exitY=0;exitDx=0;exitDy=0;exitPerimeter=0;startArrow=none;startFill=0;endArrow=block;endFill=0;strokeColor=#000000;strokeWidth=1;fontSize=11;fontColor=#000000;" edge="1" parent="1" source="g6ebV9ZMYNLidLzUV39D-33">
          <mxGeometry relative="1" as="geometry">
            <mxPoint x="85" y="530" as="targetPoint" />
          </mxGeometry>
        </mxCell>
        <mxCell id="g6ebV9ZMYNLidLzUV39D-33" value="&lt;span style=&quot;font-size: 14px&quot;&gt;Директор&lt;/span&gt;" style="shape=umlActor;verticalLabelPosition=bottom;verticalAlign=top;html=1;outlineConnect=0;labelBackgroundColor=none;" vertex="1" parent="1">
          <mxGeometry x="90" y="620" width="30" height="60" as="geometry" />
        </mxCell>
        <mxCell id="g6ebV9ZMYNLidLzUV39D-34" value="&lt;span style=&quot;font-size: 14px&quot;&gt;Переглянути загальну аналітику даних&lt;/span&gt;" style="ellipse;whiteSpace=wrap;html=1;labelBackgroundColor=none;fontColor=#000000;" vertex="1" parent="1">
          <mxGeometry x="220" y="630" width="300" height="40" as="geometry" />
        </mxCell>
        <mxCell id="g6ebV9ZMYNLidLzUV39D-35" value="" style="endArrow=none;html=1;fontFamily=Times New Roman;fontSize=11;strokeColor=#000000;strokeWidth=1;entryX=0;entryY=0.5;entryDx=0;entryDy=0;" edge="1" parent="1" target="g6ebV9ZMYNLidLzUV39D-34">
          <mxGeometry width="50" height="50" relative="1" as="geometry">
            <mxPoint x="140" y="650" as="sourcePoint" />
            <mxPoint x="320" y="380" as="targetPoint" />
          </mxGeometry>
        </mxCell>
        <mxCell id="g6ebV9ZMYNLidLzUV39D-36" value="" style="endArrow=none;html=1;strokeColor=#000000;strokeWidth=1;fontSize=11;fontColor=#000000;" edge="1" parent="1">
          <mxGeometry width="50" height="50" relative="1" as="geometry">
            <mxPoint x="160" y="720" as="sourcePoint" />
            <mxPoint x="160" y="10" as="targetPoint" />
          </mxGeometry>
        </mxCell>
        <mxCell id="g6ebV9ZMYNLidLzUV39D-37" value="" style="endArrow=none;html=1;fontFamily=Times New Roman;fontSize=11;strokeColor=#000000;strokeWidth=1;" edge="1" parent="1">
          <mxGeometry width="50" height="50" relative="1" as="geometry">
            <mxPoint x="640" y="10" as="sourcePoint" />
            <mxPoint x="160" y="10" as="targetPoint" />
          </mxGeometry>
        </mxCell>
        <mxCell id="g6ebV9ZMYNLidLzUV39D-38" value="" style="endArrow=none;html=1;fontFamily=Times New Roman;fontSize=11;strokeColor=#000000;strokeWidth=1;" edge="1" parent="1">
          <mxGeometry width="50" height="50" relative="1" as="geometry">
            <mxPoint x="640" y="720" as="sourcePoint" />
            <mxPoint x="640" y="10" as="targetPoint" />
          </mxGeometry>
        </mxCell>
        <mxCell id="g6ebV9ZMYNLidLzUV39D-39" value="" style="endArrow=none;html=1;fontFamily=Times New Roman;fontSize=11;strokeColor=#000000;strokeWidth=1;" edge="1" parent="1">
          <mxGeometry width="50" height="50" relative="1" as="geometry">
            <mxPoint x="640" y="720" as="sourcePoint" />
            <mxPoint x="160" y="720" as="targetPoint" />
          </mxGeometry>
        </mxCell>
      </root>
    </mxGraphModel>
  </diagram>
</mxfile>
